<svg width="136" height="24" viewBox="0 0 136 24" fill="none" xmlns="http://www.w3.org/2000/svg">
<g clip-path="url(#clip0_67_23649)">
<path d="M56.8044 0.000732422C55.1667 0.000732422 53.7432 0.636732 52.7823 1.74503C51.8215 2.85333 51.3233 4.39083 51.3233 6.15523C51.3233 7.53773 51.6281 8.98333 52.497 10.1325C53.366 11.2817 54.8263 12.0548 56.7905 12.0548C57.8473 12.0548 59.2497 11.8004 60.3457 10.678C60.346 10.6776 60.3464 10.6772 60.3467 10.6768C60.7371 10.2754 60.9871 9.84484 61.1522 9.43214C61.3755 10.0145 61.7032 10.5171 62.124 10.9159C62.9491 11.6979 64.0747 12.0682 65.2586 12.0682C66.741 12.0682 67.9353 11.5222 68.6995 10.6515C69.0069 10.3011 69.2272 9.89953 69.4015 9.47863V11.0636C69.4015 11.2625 69.4811 11.4533 69.6227 11.594C69.7642 11.7346 69.9563 11.8136 70.1565 11.8136H72.2836C72.4838 11.8136 72.6758 11.7346 72.8174 11.594C72.959 11.4533 73.0385 11.2625 73.0385 11.0636V6.86383C73.0385 6.42693 73.1573 6.20604 73.1608 6.20114C73.164 6.19667 73.1671 6.19217 73.1701 6.18763C73.2451 6.07533 73.4187 5.96923 73.6404 5.96923C73.9037 5.96923 73.9383 6.05434 73.9934 6.16364C74.0062 6.18914 74.028 6.31163 74.028 6.60913V11.0636C74.028 11.2625 74.1076 11.4533 74.2492 11.594C74.3907 11.7346 74.5828 11.8136 74.783 11.8136H76.9394C77.1396 11.8136 77.3316 11.7346 77.4732 11.594C77.6148 11.4533 77.6943 11.2625 77.6943 11.0636V10.4466C77.7863 10.6037 77.8901 10.7613 78.0324 10.911C78.0337 10.9125 78.035 10.9139 78.0364 10.9153C78.8776 11.7867 80.0157 12.0265 81.0525 12.0265C83.5727 12.0265 85.1195 10.4727 85.1195 8.80753C85.1195 8.16263 84.8892 7.52773 84.4421 7.05833C84.27 6.87763 84.0657 6.72813 83.8462 6.59293H84.1079C84.2661 6.59294 84.4202 6.5436 84.5486 6.45187C84.6771 6.36015 84.7732 6.23068 84.8236 6.08173H85.2806V9.26143C85.2806 9.55963 85.254 10.2234 85.6679 10.8577C86.0816 11.492 86.9408 11.9409 88.1636 11.9409C88.57 11.9409 89.2369 11.8936 90.0029 11.6879C90.1357 11.6523 90.2562 11.5813 90.3513 11.4825C90.4205 11.5843 90.5137 11.6677 90.6228 11.7253C90.7319 11.7829 90.8536 11.813 90.9772 11.813H93.0902C93.2905 11.813 93.4825 11.734 93.6241 11.5934C93.7657 11.4527 93.8452 11.2619 93.8452 11.063V7.53103C93.8452 7.12013 93.9044 6.82574 94.004 6.70634C94.1034 6.58704 94.3492 6.40333 95.2914 6.49033C95.3825 6.49872 95.4744 6.49059 95.5626 6.46633V8.35383C95.5626 8.70703 95.4681 9.83743 96.1923 10.7421C96.7635 11.4861 97.7631 11.9974 98.9597 11.9974C99.6327 11.9974 100.171 11.8064 100.594 11.5614C100.665 11.6407 100.751 11.7042 100.849 11.7477C100.946 11.7912 101.052 11.8136 101.158 11.8136H103.215C103.324 11.8136 103.431 11.7905 103.529 11.7457C103.628 11.701 103.715 11.6357 103.786 11.5543C103.857 11.4729 103.909 11.3773 103.94 11.274C103.97 11.1707 103.978 11.0621 103.962 10.9556C103.939 10.8028 103.922 10.6491 103.912 10.4948C103.912 10.4103 103.9 9.91254 103.896 9.75424C104.062 10.1242 104.259 10.4772 104.528 10.7872C104.53 10.7895 104.532 10.7918 104.534 10.794C105.355 11.7168 106.486 11.9976 107.556 11.9976C108.583 11.9976 109.451 11.7083 110.103 11.1509C111.147 10.2716 111.265 9.08233 111.294 8.50593C111.299 8.40438 111.284 8.30283 111.248 8.20747C111.213 8.11211 111.158 8.02493 111.088 7.95123C111.017 7.87752 110.932 7.81883 110.838 7.77873C110.744 7.73862 110.643 7.71794 110.54 7.71793H108.456C108.265 7.71793 108.081 7.79019 107.941 7.92007C107.801 8.04996 107.716 8.22778 107.703 8.41754C107.668 8.92984 107.542 9.05553 107.515 9.08043C107.488 9.10523 107.488 9.09384 107.485 9.09384C107.42 9.09384 107.506 9.13363 107.465 9.09013L107.47 9.09483C107.425 9.04683 107.273 8.70443 107.212 8.33383C107.152 7.96343 107.141 7.57533 107.141 7.40283C107.141 7.04943 107.178 6.53033 107.286 6.19833C107.34 6.03233 107.409 5.92433 107.442 5.89113C107.475 5.85793 107.44 5.86884 107.499 5.86884C107.5 5.86884 107.499 5.86863 107.499 5.86863C107.504 5.87423 107.532 5.90383 107.562 5.97473C107.627 6.12723 107.659 6.36013 107.677 6.52333C107.698 6.70637 107.786 6.87534 107.924 6.99804C108.063 7.12074 108.242 7.18859 108.427 7.18864H110.498C110.598 7.18864 110.696 7.16904 110.788 7.13098C110.88 7.09292 110.964 7.03715 111.034 6.96688C111.104 6.89661 111.16 6.81323 111.197 6.72156C111.235 6.62988 111.254 6.53172 111.253 6.43273C111.252 6.30913 111.223 6.19993 111.211 6.08173H111.327V9.26143C111.327 9.55963 111.301 10.2234 111.715 10.8577C112.128 11.492 112.988 11.9409 114.21 11.9409C114.617 11.9409 115.283 11.8936 116.05 11.6879C116.182 11.6523 116.303 11.5814 116.398 11.4827C116.467 11.5846 116.56 11.668 116.669 11.7257C116.778 11.7834 116.9 11.8136 117.024 11.8136H119.137C119.337 11.8136 119.529 11.7346 119.671 11.594C119.812 11.4533 119.892 11.2625 119.892 11.0636V9.87183C120.096 10.2636 120.337 10.6247 120.644 10.9159C121.469 11.6979 122.595 12.0683 123.779 12.0683C125.261 12.0683 126.455 11.5222 127.22 10.6515C127.406 10.4387 127.569 10.2074 127.707 9.96123V11.0636C127.707 11.2625 127.787 11.4533 127.928 11.594C128.07 11.7346 128.262 11.8136 128.462 11.8136H130.59C130.79 11.8136 130.982 11.7346 131.123 11.594C131.265 11.4533 131.345 11.2625 131.345 11.0636V6.86383C131.345 6.42693 131.463 6.20604 131.467 6.20114C131.47 6.1966 131.473 6.19203 131.476 6.18743C131.551 6.07513 131.725 5.96923 131.946 5.96923C132.21 5.96923 132.244 6.05424 132.299 6.16364C132.312 6.18914 132.334 6.31163 132.334 6.60913V11.0636C132.334 11.2625 132.413 11.4533 132.555 11.594C132.697 11.7346 132.889 11.8136 133.089 11.8136H135.245C135.445 11.8136 135.637 11.7346 135.779 11.594C135.921 11.4533 136 11.2625 136 11.0636V7.19073C136 5.84114 135.945 5.32124 135.756 4.79644C135.755 4.79323 135.754 4.79003 135.753 4.78683C135.48 4.05923 134.565 2.95053 132.846 2.95053C132.099 2.95053 131.511 3.15734 131.053 3.42354C130.983 3.32981 130.891 3.25369 130.786 3.20124C130.681 3.14879 130.565 3.12146 130.448 3.12144H128.42C128.315 3.12144 128.212 3.143 128.116 3.18475C128.021 3.2265 127.935 3.28753 127.864 3.36398C127.793 3.44043 127.739 3.53064 127.706 3.62889C127.672 3.72713 127.659 3.83128 127.668 3.93474C127.7 4.31074 127.701 4.84053 127.702 5.01773C127.57 4.78773 127.419 4.56743 127.24 4.36433C126.483 3.50703 125.299 2.97933 123.821 2.97933C122.215 2.97933 121.009 3.61703 120.296 4.52863C120.136 4.73333 120.007 4.95084 119.892 5.17224V3.88563C119.892 3.7711 119.865 3.65809 119.815 3.55529C119.764 3.45248 119.69 3.3626 119.599 3.29254C119.71 3.22575 119.802 3.13159 119.866 3.01915C119.93 2.90672 119.963 2.77982 119.963 2.65073V0.821234C119.963 0.622322 119.884 0.431558 119.742 0.290906C119.6 0.150253 119.408 0.0712341 119.208 0.0712341H116.952C116.752 0.0712341 116.56 0.150253 116.418 0.290906C116.277 0.431558 116.197 0.622322 116.197 0.821234V2.65073C116.197 2.77988 116.231 2.90684 116.295 3.01932C116.359 3.13179 116.451 3.22597 116.562 3.29273C116.515 3.32888 116.472 3.37044 116.435 3.41653C116.365 3.34539 116.281 3.28889 116.188 3.25032C116.096 3.21176 115.996 3.19191 115.896 3.19193H114.936V1.77183C114.936 1.65104 114.907 1.53203 114.851 1.42493C114.795 1.31782 114.713 1.22579 114.613 1.15665C114.514 1.08752 114.399 1.04333 114.278 1.02785C114.157 1.01237 114.035 1.02605 113.921 1.06773L111.822 1.83413C111.677 1.8871 111.551 1.98299 111.463 2.10887C111.375 2.23474 111.327 2.38454 111.327 2.53803V3.19193H110.697C110.528 3.19192 110.365 3.24799 110.232 3.35121C110.099 3.45442 110.005 3.59884 109.964 3.76143C109.235 3.21753 108.361 3.00673 107.556 3.00673C106.957 3.00673 105.975 3.13133 105.068 3.78503C104.593 4.12793 104.17 4.63063 103.871 5.28903V3.89954C103.871 3.70062 103.791 3.50985 103.65 3.3692C103.508 3.22855 103.316 3.14954 103.116 3.14954H100.944C100.744 3.14954 100.552 3.22855 100.41 3.3692C100.269 3.50985 100.189 3.70062 100.189 3.89954V7.51653C100.189 8.12653 100.153 8.62053 100.078 8.79913C100.04 8.88843 100.027 8.89843 99.9841 8.92373C99.9415 8.94913 99.8328 8.99373 99.5875 8.99373C99.2373 8.99373 99.3376 8.99073 99.2911 8.88643C99.2445 8.78213 99.2148 8.48123 99.2148 8.16903V3.89954C99.2148 3.70062 99.1353 3.50985 98.9937 3.3692C98.8521 3.22855 98.6601 3.14954 98.4598 3.14954H96.3176C96.1546 3.14958 95.9961 3.20198 95.8656 3.29893C95.7367 3.18399 95.572 3.11655 95.399 3.10793C95.3369 3.10493 95.276 3.10283 95.2166 3.10193C95.1801 3.10138 95.1437 3.10345 95.1075 3.10814C94.4662 3.11314 93.9234 3.24343 93.4975 3.46613C93.4292 3.36031 93.3352 3.27324 93.2242 3.21294C93.1131 3.15264 92.9886 3.12103 92.862 3.12103H90.8775C90.7738 3.12106 90.6712 3.14231 90.5761 3.18346C90.481 3.22461 90.3955 3.28479 90.3249 3.36024C90.1902 3.25138 90.0219 3.19194 89.8483 3.19193H88.8894V1.77183C88.8894 1.65108 88.8601 1.53211 88.8039 1.42504C88.7477 1.31796 88.6663 1.22595 88.5667 1.15682C88.467 1.0877 88.352 1.0435 88.2314 1.02799C88.1109 1.01248 87.9884 1.02611 87.8743 1.06773L85.7751 1.83413C85.63 1.8871 85.5049 1.98299 85.4165 2.10887C85.328 2.23474 85.2806 2.38454 85.2806 2.53803V3.19193H84.6505C84.4726 3.19194 84.3005 3.25431 84.1645 3.36805C84.0284 3.48178 83.9371 3.63958 83.9067 3.81364C83.8407 3.75614 83.7829 3.68863 83.7119 3.63823C83.0496 3.16853 82.2253 2.97883 81.3665 2.97883C80.3158 2.97883 79.3771 3.21004 78.6532 3.71414C78.133 4.07644 77.7501 4.60933 77.5711 5.22183C77.5404 5.07751 77.5 4.9354 77.4502 4.79644C77.4491 4.79323 77.4479 4.79003 77.4467 4.78683C77.1741 4.05943 76.2589 2.95053 74.5406 2.95053C73.7934 2.95053 73.205 3.15724 72.7472 3.42354C72.677 3.3298 72.5856 3.25367 72.4805 3.20121C72.3754 3.14876 72.2594 3.12145 72.1417 3.12144H70.1143C70.0098 3.12141 69.9064 3.14295 69.8107 3.18469C69.715 3.22643 69.629 3.28746 69.5583 3.36391C69.4875 3.44036 69.4336 3.53058 69.3998 3.62884C69.3659 3.7271 69.353 3.83126 69.3619 3.93474C69.3986 4.36574 69.4016 5.14773 69.4016 5.17633V5.49854C69.2316 5.09164 69.0186 4.70303 68.7197 4.36433C67.9634 3.50703 66.779 2.97933 65.302 2.97933C63.695 2.97933 62.4887 3.61683 61.7761 4.52843C61.1902 5.27803 60.9315 6.16083 60.8544 7.00363C60.814 6.99701 60.7731 6.99366 60.7321 6.99363H58.4036C58.2075 6.99364 58.0191 7.06946 57.8783 7.20504C57.7374 7.34061 57.6552 7.52531 57.6491 7.72003C57.6325 8.24333 57.478 8.50693 57.2942 8.67633C57.1103 8.84563 56.8533 8.93723 56.5471 8.93723C56.1787 8.93723 55.9935 8.84053 55.8165 8.67593C55.6396 8.51133 55.4851 8.24353 55.3765 7.91993C55.1593 7.27243 55.1457 6.47433 55.1457 6.16903C55.1457 5.19253 55.319 4.34483 55.6024 3.82603C55.8858 3.30743 56.1601 3.10324 56.719 3.10324C57.2237 3.10324 57.3078 3.24633 57.4387 3.48253C57.5695 3.71873 57.6146 4.03493 57.6402 4.24483C57.6624 4.4268 57.7509 4.5944 57.889 4.71596C58.0271 4.83753 58.2052 4.90464 58.3897 4.90463H60.6458C60.846 4.90463 61.038 4.82561 61.1796 4.68496C61.3212 4.54431 61.4007 4.35355 61.4007 4.15463C61.4007 2.94043 60.9077 1.85894 60.0715 1.12454C59.2352 0.390136 58.0856 0.000732422 56.8044 0.000732422ZM26.5784 0.0522339C26.3782 0.0522339 26.1862 0.131253 26.0446 0.271906C25.903 0.412558 25.8235 0.603322 25.8235 0.802234V23.2505C25.8235 23.4494 25.903 23.6402 26.0446 23.7809C26.1862 23.9215 26.3782 24.0005 26.5784 24.0005H34.325C34.5253 24.0005 34.7173 23.9215 34.8589 23.7809C35.0005 23.6402 35.08 23.4494 35.08 23.2505V0.802234C35.08 0.603322 35.0005 0.412558 34.8589 0.271906C34.7173 0.131253 34.5253 0.0522339 34.325 0.0522339H26.5784ZM0.754963 0.0532349C0.554734 0.0532349 0.362707 0.132248 0.221124 0.2729C0.0795407 0.413553 0 0.604322 0 0.803235V23.2507C0 23.4496 0.0795407 23.6404 0.221124 23.7811C0.362707 23.9217 0.554734 24.0007 0.754963 24.0007H8.50239C8.70262 24.0007 8.89465 23.9217 9.03623 23.7811C9.17781 23.6404 9.25736 23.4496 9.25736 23.2507V0.803235C9.25736 0.604322 9.17781 0.413553 9.03623 0.2729C8.89465 0.132248 8.70262 0.0532349 8.50239 0.0532349H0.754963ZM10.7613 0.0532349C10.5611 0.0532349 10.3691 0.132248 10.2275 0.2729C10.0859 0.413553 10.0064 0.604322 10.0064 0.803235V23.2507C10.0064 23.4496 10.0859 23.6404 10.2275 23.7811C10.3691 23.9217 10.5611 24.0007 10.7613 24.0007H12.8874C19.604 24.0007 25.074 18.6359 25.074 12.0269C25.074 5.41794 19.6041 0.0532349 12.8874 0.0532349H10.7613ZM56.8044 1.50073C57.7802 1.50073 58.5514 1.79163 59.0715 2.24833C59.419 2.55363 59.6567 2.93983 59.7836 3.40463H59.015C58.9602 3.20363 58.8862 2.98453 58.7614 2.75933C58.4425 2.18343 57.7128 1.60333 56.719 1.60333C55.6352 1.60333 54.7455 2.24983 54.2753 3.11053C53.8052 3.97113 53.6358 5.03143 53.6358 6.16913C53.6358 6.47433 53.6222 7.43513 53.944 8.39423C54.1051 8.87383 54.3547 9.37123 54.7843 9.77083C55.214 10.1705 55.8373 10.4372 56.5471 10.4372C57.1702 10.4372 57.8198 10.238 58.3211 9.77614C58.6685 9.45604 58.9153 9.01183 59.0482 8.49373H59.8748C59.7919 8.86823 59.6342 9.25023 59.2617 9.63373C58.5292 10.3836 57.6185 10.5547 56.7904 10.5547C55.1983 10.5547 54.3024 10.0224 53.7044 9.23164C53.1064 8.44063 52.8332 7.31163 52.8332 6.15523C52.8332 4.67023 53.2489 3.50533 53.9266 2.72373C54.604 1.94223 55.5434 1.50073 56.8045 1.50073H56.8044ZM27.3334 1.55223H33.5701V22.5005H27.3334V1.55223ZM1.50993 1.55323H7.74743V22.5007H1.50993V1.55323ZM11.5163 1.55323H12.8874C18.7975 1.55323 23.5641 6.23823 23.5641 12.0269C23.5641 17.8156 18.7975 22.5007 12.8874 22.5007H11.5164L11.5163 1.55323ZM117.707 1.57123H118.453V1.90073H117.707V1.57123ZM87.3795 2.84644V3.94193C87.3795 4.09123 87.4244 4.23713 87.5084 4.36094C87.5924 4.48476 87.7116 4.58086 87.8509 4.63693C87.7117 4.693 87.5924 4.78907 87.5084 4.91284C87.4245 5.03662 87.3796 5.18247 87.3795 5.33173V8.56713C87.3795 8.57287 87.3796 8.5786 87.3797 8.58433C87.3872 8.90693 87.336 9.29563 87.6312 9.74993C87.7787 9.97713 88.0294 10.1655 88.2855 10.2595C88.4908 10.3348 88.7028 10.3605 88.927 10.3702C88.6105 10.4157 88.3301 10.4409 88.1636 10.4409C87.2581 10.4409 87.0533 10.2232 86.935 10.0419C86.8167 9.86063 86.7904 9.55973 86.7904 9.26143V5.33173C86.7904 5.18247 86.7456 5.03662 86.6616 4.91282C86.5777 4.78903 86.4585 4.69294 86.3192 4.63683C86.4585 4.58073 86.5777 4.48464 86.6616 4.36085C86.7456 4.23705 86.7904 4.09119 86.7904 3.94193V3.06143L87.3795 2.84644ZM113.426 2.84644V3.94193C113.426 4.09116 113.471 4.23697 113.555 4.36072C113.639 4.48448 113.758 4.58054 113.898 4.63663C113.758 4.69275 113.639 4.78888 113.555 4.91271C113.471 5.03654 113.426 5.18244 113.426 5.33173V8.56713C113.426 8.57287 113.426 8.5786 113.427 8.58433C113.434 8.90693 113.383 9.29594 113.678 9.75034C113.826 9.97754 114.077 10.1656 114.333 10.2595C114.538 10.3347 114.75 10.3604 114.974 10.3702C114.657 10.4157 114.377 10.4409 114.21 10.4409C113.305 10.4409 113.1 10.2232 112.982 10.0419C112.864 9.86063 112.837 9.55973 112.837 9.26143V5.33173C112.837 5.18246 112.792 5.03659 112.708 4.9128C112.624 4.78901 112.505 4.69292 112.366 4.63683C112.505 4.58075 112.624 4.48466 112.708 4.36086C112.792 4.23707 112.837 4.0912 112.837 3.94193V3.06143L113.426 2.84644ZM74.5406 4.45043C75.6423 4.45043 75.9277 5.03673 76.0289 5.30463C76.1551 5.65703 76.1844 5.87723 76.1844 7.19073V10.3136H75.538V6.60913C75.538 6.31133 75.5599 5.92273 75.3453 5.49443C75.3448 5.49343 75.3442 5.49243 75.3437 5.49143C75.116 5.04203 74.5995 4.61623 73.9254 4.51263C74.1277 4.47043 74.3339 4.44951 74.5406 4.45043ZM132.846 4.45043C133.948 4.45043 134.234 5.03683 134.335 5.30463C134.461 5.65683 134.49 5.87713 134.49 7.19073V10.3136H133.844V6.60913C133.844 6.31133 133.865 5.92273 133.651 5.49443C133.65 5.49343 133.65 5.49243 133.649 5.49143C133.422 5.04203 132.905 4.61583 132.23 4.51243C132.433 4.47027 132.639 4.44949 132.846 4.45043ZM66.1375 4.56083C66.7927 4.69133 67.2508 4.97523 67.5843 5.35323C68.0449 5.87524 68.2874 6.62823 68.2874 7.48843C68.2874 8.35123 68.0357 9.12514 67.5613 9.66574C67.1956 10.0824 66.6916 10.3882 65.9646 10.5087C66.3842 10.3922 66.7894 10.1662 67.0684 9.78173C67.4891 9.20233 67.641 8.43514 67.641 7.40244C67.641 6.87904 67.6099 6.21743 67.2965 5.58173C67.0851 5.15313 66.6675 4.77293 66.1375 4.56083ZM124.657 4.56083C125.312 4.69133 125.771 4.97503 126.105 5.35323C126.565 5.87524 126.808 6.62823 126.808 7.48843C126.808 8.35123 126.556 9.12514 126.082 9.66574C125.716 10.0824 125.212 10.3883 124.485 10.5087C124.904 10.3922 125.309 10.1661 125.588 9.78173C126.009 9.20243 126.161 8.43534 126.161 7.40244C126.161 6.87874 126.13 6.21703 125.816 5.58143C125.605 5.15273 125.187 4.77283 124.657 4.56083ZM122.863 4.59403C122.713 4.66273 122.572 4.74134 122.451 4.83914C122.099 5.12404 121.888 5.49113 121.757 5.84053C121.496 6.53953 121.51 7.22773 121.51 7.55933C121.51 8.44483 121.644 9.17063 122.05 9.74213C122.34 10.1495 122.783 10.4091 123.262 10.5284C122.623 10.4444 122.085 10.2087 121.687 9.83073C121.184 9.35413 120.85 8.63993 120.85 7.54543C120.85 6.80713 121.048 6.01203 121.489 5.44843C121.796 5.05543 122.222 4.74943 122.863 4.59403ZM64.3417 4.59443C64.1929 4.66303 64.052 4.74143 63.9312 4.83903C63.5788 5.12373 63.368 5.49083 63.2372 5.84033C62.9757 6.53933 62.9899 7.22773 62.9899 7.55933C62.9899 8.44463 63.1234 9.17033 63.5295 9.74193C63.8191 10.1494 64.2621 10.409 64.7416 10.5284C64.1026 10.4444 63.5652 10.2087 63.1664 9.83084C62.6636 9.35414 62.3292 8.63993 62.3292 7.54543C62.3292 6.80713 62.528 6.01203 62.9686 5.44843C63.2757 5.05563 63.7021 4.74993 64.3417 4.59443ZM108.274 4.60424C108.568 4.68054 108.846 4.79863 109.067 4.96593C109.307 5.14683 109.49 5.37694 109.608 5.68864H109.04C109.011 5.58764 108.999 5.49903 108.953 5.39153C108.859 5.16963 108.717 4.92453 108.472 4.71773C108.417 4.67113 108.34 4.64334 108.274 4.60424ZM91.6745 4.62103H92.1302L92.1507 5.27023C92.1558 5.4301 92.2122 5.58416 92.3117 5.70992C92.4112 5.83567 92.5485 5.92653 92.7037 5.96923C92.3597 6.51523 92.3353 7.10563 92.3353 7.53093V10.3129H91.7321V5.65853C91.7321 5.42233 91.698 5.01493 91.6745 4.62103ZM70.8931 4.62144H71.425L71.4443 4.98843C71.4505 5.10684 71.4849 5.22208 71.5447 5.32471C71.6045 5.42734 71.6879 5.51443 71.7881 5.57883C71.6216 5.91143 71.5286 6.32763 71.5286 6.86383V10.3136H70.9115V5.17623C70.9115 5.16423 70.8958 4.81493 70.8931 4.62123V4.62144ZM129.199 4.62144H129.731L129.75 4.98843C129.756 5.10684 129.791 5.22208 129.85 5.32471C129.91 5.42734 129.994 5.51443 130.094 5.57883C129.927 5.91143 129.835 6.32763 129.835 6.86383V10.3136H129.217V5.17623C129.217 5.16423 129.202 4.81493 129.199 4.62123V4.62144ZM82.3617 4.63474C82.5433 4.69614 82.7076 4.76904 82.8343 4.85894C82.9281 4.92589 83.0128 5.00453 83.0864 5.09293H82.718C82.6203 4.91203 82.5005 4.75674 82.3617 4.63474ZM117.779 4.63574H118.382V10.3136H117.779V4.63574ZM97.0725 4.64954H97.7047V8.16914C97.7047 8.48133 97.6753 8.96774 97.9106 9.49464C98.1175 9.95774 98.6628 10.3587 99.3177 10.4538C99.2015 10.4701 99.1059 10.4974 98.9597 10.4974C98.2187 10.4974 97.62 10.1319 97.3898 9.83023C97.3855 9.8245 97.3812 9.81884 97.3767 9.81323C97.169 9.55673 97.0725 8.70863 97.0725 8.35383V4.64954ZM101.699 4.64954H102.361V8.62383C102.361 8.6283 102.361 8.63276 102.361 8.63723C102.386 10.0035 102.395 10.1568 102.398 10.3136H101.859L101.84 10.0568C101.83 9.92845 101.787 9.80469 101.716 9.69749C101.644 9.59028 101.546 9.50324 101.43 9.44473C101.441 9.42123 101.462 9.39964 101.472 9.37614C101.736 8.74614 101.699 8.12653 101.699 7.51653V4.64954ZM94.6065 4.65273V4.98333C94.3267 5.00233 94.0728 5.04973 93.8419 5.12043C93.9001 5.04073 93.9585 4.96204 94.0356 4.89954C94.1606 4.79834 94.3374 4.70733 94.6065 4.65273ZM106.523 4.70974C106.468 4.75204 106.411 4.79353 106.364 4.84093C106.094 5.11423 105.948 5.43123 105.849 5.73883C105.649 6.35403 105.63 6.97703 105.63 7.40283C105.63 7.62813 105.64 8.07683 105.722 8.57513C105.804 9.07343 105.916 9.63183 106.357 10.1093C106.359 10.1109 106.36 10.1125 106.362 10.114C106.504 10.2648 106.669 10.3616 106.833 10.4353C106.371 10.3541 106.002 10.1764 105.669 9.80363C105.182 9.24033 104.941 8.49703 104.941 7.47373C104.941 6.02633 105.416 5.38783 105.956 4.99873C106.133 4.87053 106.328 4.78234 106.523 4.70974ZM79.7353 4.82324C79.5354 5.06324 79.3975 5.37474 79.3975 5.70114C79.3975 6.12614 79.675 6.61833 80.0036 6.82653C80.3323 7.03463 80.6247 7.09113 80.9399 7.17633L82.2374 7.53033C82.2379 7.5305 82.2385 7.53067 82.239 7.53084C82.8092 7.68524 83.1573 7.89233 83.3453 8.08963C83.5333 8.28683 83.6096 8.47424 83.6096 8.80764C83.6096 9.36094 83.3137 9.96113 82.4956 10.2851C82.8699 9.98633 83.1068 9.56713 83.1068 9.12023C83.1068 8.82623 82.9662 8.39203 82.6716 8.12473C82.377 7.85743 82.0237 7.71783 81.5529 7.58883C81.552 7.58863 81.5512 7.58843 81.5503 7.58823L80.2511 7.23743L80.2507 7.23723C79.9548 7.15103 79.6048 7.03623 79.3641 6.85263C79.1233 6.66913 78.965 6.49003 78.965 5.97083C78.965 5.50493 79.1335 5.21153 79.5199 4.94233C79.5818 4.89923 79.6606 4.86194 79.7353 4.82324ZM71.9212 5.34453C71.9195 5.34703 71.9183 5.35034 71.9165 5.35294C71.9152 5.35484 71.9132 5.35603 71.912 5.35793L71.9212 5.34453ZM130.227 5.34453C130.225 5.34703 130.224 5.35034 130.222 5.35294C130.221 5.35484 130.219 5.35603 130.218 5.35793L130.227 5.34453ZM65.3019 5.88353C65.7626 5.88353 65.8117 5.98033 65.9405 6.24153C66.0693 6.50283 66.131 6.97573 66.131 7.40253C66.131 8.27123 65.9691 8.73184 65.8437 8.90454C65.7184 9.07714 65.6432 9.10753 65.3301 9.10753C64.9774 9.10753 64.8887 9.05373 64.763 8.87694C64.6374 8.70014 64.4998 8.27663 64.4998 7.55933C64.4998 7.23853 64.5212 6.71383 64.6525 6.36303C64.7181 6.18763 64.7999 6.07063 64.8841 6.00253C64.9684 5.93433 65.0618 5.88353 65.3019 5.88353ZM123.821 5.88353C124.282 5.88353 124.332 5.98063 124.461 6.24193C124.59 6.50323 124.651 6.97593 124.651 7.40253C124.651 8.27113 124.489 8.73154 124.364 8.90424C124.238 9.07704 124.163 9.10753 123.85 9.10753C123.498 9.10753 123.409 9.05363 123.284 8.87673C123.158 8.69973 123.02 8.27653 123.02 7.55933C123.02 7.23843 123.042 6.71374 123.173 6.36284C123.238 6.18744 123.32 6.07033 123.404 6.00233C123.488 5.93423 123.581 5.88353 123.821 5.88353ZM90.2222 5.98314V8.96263C90.0753 8.86612 89.899 8.82367 89.7239 8.84263C89.4692 8.87043 89.3842 8.88023 89.0919 8.88023C88.9795 8.88023 88.961 8.87084 88.9154 8.86284C88.9063 8.79444 88.893 8.69843 88.8894 8.55233V6.08184H89.8482C89.9794 6.08177 90.1083 6.04775 90.2222 5.98314ZM116.269 5.98394V8.96263C116.122 8.86615 115.946 8.82373 115.771 8.84273C115.516 8.87043 115.431 8.88023 115.14 8.88023C115.027 8.88023 115.008 8.87094 114.962 8.86284C114.953 8.79454 114.94 8.69853 114.936 8.55233V6.08184H115.896C116.027 6.0818 116.155 6.04807 116.269 5.98394ZM77.6892 7.04193C77.874 7.46523 78.1431 7.81253 78.445 8.04273C78.5474 8.12073 78.651 8.18203 78.754 8.24233H78.0534C77.928 8.24232 77.8046 8.27331 77.6943 8.33253V7.19073C77.6943 7.12403 77.6895 7.10463 77.6893 7.04193H77.6892ZM80.7916 8.93784L81.1519 9.03503C81.3544 9.09063 81.4746 9.14104 81.5529 9.17924C81.5124 9.19984 81.4464 9.22044 81.2375 9.22044C80.9451 9.22044 80.8869 9.15743 80.8563 9.12643C80.8257 9.09543 80.798 9.03483 80.7922 8.94443C80.792 8.94223 80.7918 8.94003 80.7916 8.93784ZM109.084 9.21783H109.675C109.59 9.48514 109.432 9.75023 109.125 10.0083C109.123 10.01 109.121 10.0117 109.119 10.0133C108.839 10.253 108.536 10.4049 108.078 10.4663C108.228 10.405 108.384 10.3228 108.533 10.1883C108.783 9.96134 108.968 9.63013 109.084 9.21783ZM79.0265 9.74233H79.4778C79.5525 9.89353 79.6454 10.0421 79.7781 10.1766C79.8647 10.2644 79.9639 10.342 80.0727 10.41C79.7083 10.313 79.3917 10.1506 79.129 9.87943C79.0857 9.83373 79.0585 9.78803 79.0265 9.74233ZM36.586 14.804C36.3858 14.804 36.1937 14.8831 36.0522 15.0237C35.9106 15.1644 35.831 15.3551 35.831 15.554V23.2505C35.831 23.4494 35.9106 23.6402 36.0522 23.7809C36.1937 23.9215 36.3858 24.0005 36.586 24.0005H50.1441C50.3444 24.0005 50.5364 23.9215 50.678 23.7809C50.8196 23.6402 50.8991 23.4494 50.8991 23.2505V15.554C50.8991 15.3551 50.8196 15.1644 50.678 15.0237C50.5364 14.8831 50.3444 14.804 50.1441 14.804H36.586ZM37.341 16.304H49.3892V22.5005H37.341V16.304Z" fill="white"/>
<path d="M56.8036 0.75C53.9049 0.75 52.0775 2.9052 52.0775 6.1545C52.0775 8.6934 53.2331 11.3041 56.7896 11.3041C57.732 11.3041 58.8886 11.0914 59.8028 10.1551C60.6306 9.3039 60.6879 8.3536 60.7312 7.7431H58.4028C58.3595 9.105 57.4755 9.6866 56.5462 9.6866C54.3898 9.6866 54.3898 6.7789 54.3898 6.1684C54.3898 4.0542 55.0756 2.3525 56.7181 2.3525C58.2166 2.3525 58.3454 3.7993 58.3887 4.154H60.6447C60.6447 2.1107 59.0606 0.75 56.8036 0.75ZM26.5775 0.801599V23.25H34.324V0.801599H26.5775ZM0.753906 0.8026V23.25H8.50154V0.802496L0.753906 0.8026ZM10.7603 0.8026V23.25H12.8865C19.1998 23.25 24.3181 18.2251 24.3181 12.0263C24.3181 5.8273 19.1998 0.802496 12.8865 0.802496L10.7603 0.8026ZM116.951 0.820599V2.6501H119.207V0.820599H116.951ZM88.1336 1.7711L86.0345 2.5374V3.9412H84.6494V5.331H86.0345V9.2608C86.0345 9.8574 86.0345 11.1902 88.1627 11.1902C88.5057 11.1902 89.1202 11.1472 89.8051 10.9634V9.5876C89.5476 9.6156 89.4059 9.6296 89.091 9.6296C88.1486 9.6296 88.1486 9.2188 88.1336 8.5663V5.3309H89.8474V3.9411H88.1336V1.7711ZM114.18 1.7711L112.081 2.5374V3.9412H110.696V5.331H112.081V9.2608C112.081 9.8574 112.081 11.1902 114.209 11.1902C114.552 11.1902 115.167 11.1472 115.852 10.9634V9.5876C115.594 9.6156 115.453 9.6296 115.139 9.6296C114.195 9.6296 114.195 9.2188 114.18 8.5663V5.3309H115.895V3.9411H114.18V1.7711ZM74.5396 3.6999C72.9696 3.6999 72.3974 4.6221 72.1973 4.9489L72.1408 3.8709H70.1133C70.1555 4.3674 70.1555 5.1467 70.1555 5.1756V11.0629H72.2826V6.8632C72.2826 6.3107 72.4113 5.956 72.54 5.7722C72.7683 5.4304 73.1827 5.2187 73.6394 5.2187C74.1825 5.2187 74.5105 5.5163 74.6684 5.8281C74.7821 6.0549 74.782 6.3108 74.782 6.6085V11.0629H76.9384V7.19C76.9384 5.8561 76.8961 5.4874 76.7382 5.0478C76.5522 4.5512 75.9528 3.6999 74.5397 3.6999H74.5396ZM132.845 3.6999C131.274 3.6999 130.703 4.6221 130.503 4.9489L130.447 3.8709H128.419C128.461 4.3674 128.461 5.1467 128.461 5.1756V11.0629H130.589V6.8632C130.589 6.3107 130.717 5.956 130.846 5.7722C131.074 5.4304 131.489 5.2187 131.945 5.2187C132.488 5.2187 132.816 5.5163 132.974 5.8281C133.088 6.0549 133.088 6.3108 133.088 6.6085V11.0629H135.244V7.19C135.244 5.8561 135.202 5.4874 135.044 5.0478C134.858 4.5512 134.259 3.6999 132.845 3.6999ZM81.3653 3.7281C79.4945 3.7281 78.2092 4.5794 78.2092 5.9702C78.2092 7.431 79.4513 7.7857 80.0378 7.9565L81.3512 8.3112C82.1791 8.538 82.351 8.7928 82.351 9.1196C82.351 9.5452 81.9939 9.9699 81.2367 9.9699C80.3515 9.9699 80.067 9.4453 80.0378 8.9917H78.0523C78.0664 9.3324 78.1097 9.9001 78.5804 10.3957C79.2381 11.0771 80.1233 11.2759 81.0517 11.2759C83.2924 11.2759 84.3636 10.0409 84.3636 8.8069C84.3636 7.8287 83.7501 7.1623 82.4366 6.8066L81.137 6.4519C80.5084 6.282 80.1514 6.1831 80.1514 5.7005C80.1514 5.2609 80.5799 4.991 81.1512 4.991C81.4801 4.991 82.1216 5.048 82.179 5.8423H84.107C84.0507 4.4095 82.8508 3.7281 81.3653 3.7281ZM65.3009 3.7288C62.4585 3.7288 61.5734 5.8142 61.5734 7.5448C61.5734 10.0556 63.2008 11.3176 65.2576 11.3176C67.8706 11.3176 69.0414 9.5021 69.0414 7.4878C69.0414 5.4874 67.914 3.7288 65.3009 3.7288ZM123.82 3.7288C120.979 3.7288 120.094 5.8142 120.094 7.5448C120.094 10.0556 121.721 11.3176 123.778 11.3176C126.391 11.3176 127.562 9.5021 127.562 7.4878C127.562 5.4874 126.434 3.7288 123.82 3.7288ZM107.555 3.7562C106.598 3.7562 104.185 4.2108 104.185 7.4732C104.185 8.6222 104.471 9.5725 105.099 10.2969C105.755 11.0343 106.598 11.247 107.555 11.247C108.455 11.247 109.098 11.0203 109.611 10.5807C110.44 9.8852 110.511 9.0199 110.539 8.4673H108.455C108.369 9.7433 107.712 9.8433 107.484 9.8433C107.326 9.8433 107.113 9.8143 106.913 9.6014C106.427 9.0759 106.384 7.7999 106.384 7.4022C106.384 6.6229 106.498 5.1182 107.498 5.1182C108.313 5.1182 108.397 6.1832 108.426 6.438H110.497C110.482 4.4946 108.897 3.7562 107.555 3.7562ZM95.2033 3.8512C93.6173 3.8253 93.1673 4.6558 92.9043 5.2462L92.861 3.8703H90.8765C90.9188 4.282 90.9762 5.3171 90.9762 5.6579V11.0624H93.0893V7.5303C93.0893 6.637 93.2181 5.545 95.3604 5.7429V3.8563C95.3081 3.85373 95.2557 3.85203 95.2033 3.8512ZM117.023 3.8852V11.063H119.136V3.8851L117.023 3.8852ZM96.3167 3.8989V8.3532C96.3167 8.7079 96.3167 9.7011 96.7873 10.2826C97.1876 10.8072 97.9882 11.2468 98.9588 11.2468C100.33 11.2468 100.872 10.4246 101.086 10.1118L101.157 11.063H103.214C103.188 10.8887 103.169 10.7134 103.157 10.5375C103.157 10.3536 103.143 10.1688 103.115 8.6231V3.8989H100.943V7.5159C100.943 8.7359 100.943 9.7431 99.5864 9.7431C98.459 9.7431 98.4589 8.7929 98.4589 8.1684V3.8989H96.3167ZM65.3009 5.1328C66.7 5.1328 66.8849 6.4517 66.8849 7.4018C66.8849 9.3033 66.2573 9.8568 65.329 9.8568C64.2859 9.8568 63.7439 9.1613 63.7439 7.5587C63.7439 6.9062 63.758 5.1328 65.3009 5.1328ZM123.82 5.1328C125.219 5.1328 125.405 6.4517 125.405 7.4018C125.405 9.3033 124.777 9.8568 123.849 9.8568C122.807 9.8568 122.264 9.1613 122.264 7.5587C122.264 6.9062 122.278 5.1328 123.82 5.1328ZM36.585 15.5533V23.25H50.1431V15.5533H36.585Z" fill="#0C2340"/>
</g>
<defs>
<clipPath id="clip0_67_23649">
<rect width="136" height="24" fill="white"/>
</clipPath>
</defs>
</svg>
