<svg width="123" height="32" viewBox="0 0 123 32" fill="none" xmlns="http://www.w3.org/2000/svg">
<g clip-path="url(#clip0_67_23662)">
<mask id="mask0_67_23662" style="mask-type:luminance" maskUnits="userSpaceOnUse" x="0" y="0" width="32" height="32">
<path d="M0 0H32V32H0V0Z" fill="white"/>
</mask>
<g mask="url(#mask0_67_23662)">
<path fill-rule="evenodd" clip-rule="evenodd" d="M16.347 0.0450869C10.7244 -0.0642183 5.72503 2.73069 2.78711 7.04395C2.83688 7.10118 2.88506 7.15975 2.93162 7.21961C2.96332 7.25633 2.99152 7.293 3.01736 7.32281C3.03437 7.3242 3.0475 7.32791 3.06004 7.33128C3.26943 7.369 3.58255 7.42509 3.85214 7.66812C4.02076 7.82071 4.12951 7.99052 4.21774 8.12614C4.2551 8.18454 4.30665 8.26479 4.3302 8.28808C4.37588 8.33288 4.44638 8.38559 4.52148 8.44277C4.64193 8.53448 4.78027 8.63747 4.91342 8.77359C5.02555 8.88702 5.12792 9.00164 5.22591 9.11347C5.29 9.19099 5.35668 9.26634 5.42584 9.3394C5.47684 9.39532 5.54789 9.45759 5.62139 9.52408C5.73229 9.62248 5.85611 9.73448 5.97651 9.87065C6.13043 10.0412 6.21829 10.2218 6.2879 10.3662C6.31661 10.42 6.35768 10.5012 6.37398 10.5253V10.5239C6.48222 10.6507 6.58565 10.7823 6.68554 10.9079L6.84161 11.1033C6.86939 11.137 6.93546 11.1943 6.99676 11.2444C7.11505 11.3456 7.26314 11.4698 7.39279 11.6414C7.49233 11.77 7.57276 11.8946 7.6498 12.0176C7.70933 12.1058 7.7626 12.1885 7.81575 12.2626C7.94046 12.4328 8.01784 12.6072 8.08125 12.749C8.11473 12.8257 8.14871 12.907 8.17742 12.9449C8.20507 12.9834 8.26316 13.0442 8.3248 13.1072C8.42823 13.2118 8.55471 13.3426 8.66806 13.5098C8.78601 13.6848 8.85491 13.8634 8.91072 14.0061C8.93044 14.0589 8.95182 14.1111 8.97485 14.1626C8.99519 14.1776 9.02285 14.1952 9.04535 14.2107C9.19091 14.3082 9.41356 14.4575 9.56976 14.7114C9.65689 14.8539 9.71574 14.9963 9.76357 15.1174L10.0698 15.3247C10.5689 15.6589 10.7788 15.485 10.5365 14.937L7.71992 8.54454C7.47904 7.99566 7.5777 7.9378 7.94063 8.41595L12.1403 13.9472C12.5036 14.4259 12.7578 14.3287 12.7068 13.7315L12.1163 6.79246C12.0659 6.19578 12.1804 6.17342 12.3697 6.74062L14.4011 13.2912C14.5933 13.8603 14.845 13.8449 14.9622 13.2575L16.0986 6.50214C16.2164 5.9122 16.3335 5.92227 16.3599 6.52088L16.6495 13.4289C16.6752 14.0278 16.9398 14.0922 17.2418 13.5742L20.7084 7.59726C21.0086 7.07835 21.1163 7.12315 20.9443 7.69902L18.9808 14.2977C18.8098 14.8709 19.0421 15.019 19.4962 14.6268L24.697 10.1315C25.1502 9.73835 25.2384 9.81755 24.8886 10.3054L21.896 14.4853C22.0478 14.4809 22.2012 14.4753 22.3198 14.4098C22.5634 14.2797 22.7053 13.9472 22.9557 13.8256C23.2072 13.7058 23.5349 13.7477 23.7908 13.6363C24.0438 13.5241 24.2209 13.225 24.4768 13.1223C24.7338 13.0199 25.0027 12.9458 25.2586 12.8527C25.541 12.7492 25.8024 12.5888 26.0799 12.4957C26.3601 12.4035 26.6567 12.3618 26.9317 12.2779C27.2054 12.1934 27.5389 12.3118 27.8076 12.2356C28.1002 12.1541 28.3248 11.8426 28.6074 11.7705C28.8928 11.6967 29.2004 11.7414 29.4699 11.6779C29.7632 11.6082 30.0636 11.6183 30.337 11.5601C30.6335 11.4962 30.896 11.3417 31.1649 11.2901C31.2175 11.2797 31.2715 11.2756 31.3254 11.2733C29.3437 4.88467 23.43 0.182518 16.347 0.0450869Z" fill="#F15A38"/>
<path fill-rule="evenodd" clip-rule="evenodd" d="M13.922 30.9242C13.9226 30.9083 13.9282 30.8922 13.9321 30.8782C13.9209 30.8555 13.9084 30.8336 13.8946 30.8124C13.8192 30.6773 13.713 30.4938 13.6624 30.2582C13.6436 30.1685 13.6137 30.0666 13.5801 29.9582C13.5424 29.8386 13.5011 29.7025 13.4675 29.559C13.4257 29.3725 13.4206 29.197 13.413 29.0568C13.4103 28.9699 13.4068 28.8809 13.396 28.8375C13.3603 28.6869 13.339 28.5468 13.3201 28.4197C13.305 28.3142 13.2909 28.2122 13.2705 28.1316C13.2532 28.0612 13.2174 27.9745 13.1803 27.881C13.1316 27.7589 13.0732 27.619 13.0332 27.4589L12.9912 27.3057L12.8519 26.7805C12.8282 26.6964 12.7925 26.601 12.7548 26.5014C12.7112 26.3869 12.6627 26.2595 12.6238 26.1225C12.5521 25.8799 12.5606 25.6526 12.5675 25.4904C12.5696 25.441 12.5712 25.3832 12.57 25.3539C12.5402 25.2591 12.5022 25.1589 12.4608 25.0524C12.4174 24.941 12.3726 24.8266 12.3331 24.7018C12.322 24.679 12.2802 24.6238 12.2505 24.5806C12.1576 24.4538 12.0312 24.2809 11.9538 24.0536C11.9326 23.9895 11.891 23.9038 11.8444 23.8149C11.7845 23.6964 11.714 23.5613 11.6602 23.406C11.6172 23.2844 11.5701 23.1627 11.52 23.0359L11.4105 22.7496C11.3083 22.4775 11.3271 22.2165 11.3389 22.0451C11.3416 22.0227 11.343 21.9955 11.3444 21.9715C11.3124 21.9041 11.2773 21.8381 11.2393 21.7737C11.1754 21.6549 11.0993 21.5218 11.0359 21.3682C11.0202 21.3268 10.9678 21.2536 10.9216 21.1824C10.8427 21.065 10.7437 20.9193 10.6687 20.7414C10.606 20.593 10.5616 20.4515 10.5224 20.3271C10.4924 20.228 10.4641 20.1342 10.435 20.0688C10.3832 19.9519 10.3391 19.8378 10.2956 19.7283C10.2504 19.6169 10.2078 19.5118 10.164 19.4187L10.0318 19.1279C9.97359 18.9968 9.91697 18.8716 9.85855 18.7528C9.83799 18.7084 9.78192 18.6366 9.72776 18.5666C9.64117 18.4564 9.53606 18.3196 9.44913 18.1487C9.35377 17.9626 9.30809 17.781 9.27022 17.6374C9.25798 17.5907 9.24366 17.5327 9.23252 17.495C9.2104 17.4756 9.18224 17.4532 9.15906 17.4325C9.0249 17.3262 8.84151 17.179 8.71123 16.9437C8.58205 16.7157 8.5449 16.4858 8.51636 16.3211C8.50931 16.2765 8.50011 16.2202 8.4923 16.1936C8.40715 16.0442 8.34999 15.897 8.30309 15.7772C8.27936 15.7147 8.25568 15.6516 8.23317 15.6053C8.20914 15.5879 8.18483 15.5709 8.16027 15.5543C8.01019 15.4552 7.80662 15.3196 7.65616 15.0807C7.54555 14.9114 7.48025 14.742 7.42697 14.6038C7.39936 14.535 7.3666 14.4486 7.34536 14.4195C7.31455 14.3723 7.25278 14.3101 7.18697 14.2423C7.08746 14.1418 6.97703 14.0262 6.87402 13.88C6.75843 13.7134 6.68464 13.5466 6.62465 13.4135C6.59261 13.3437 6.55524 13.2566 6.53456 13.2273C6.45029 13.1127 6.37823 13.0016 6.31491 12.9013C6.25116 12.8022 6.18957 12.7084 6.13257 12.6344C6.1034 12.5966 6.03273 12.5376 5.96497 12.4801C5.85842 12.3879 5.72409 12.2738 5.60495 12.1254L5.43997 11.9189C5.34368 11.7976 5.25346 11.6828 5.16299 11.5763C5.01785 11.4062 4.93164 11.2325 4.86511 11.0911C4.83927 11.0414 4.8044 10.9716 4.78849 10.949C4.72563 10.8799 4.64597 10.8081 4.56174 10.733C4.47111 10.651 4.3686 10.5573 4.26669 10.4518C4.18543 10.3636 4.10542 10.2742 4.02669 10.1838C3.94243 10.0858 3.86205 9.99233 3.78615 9.91599C3.73072 9.86012 3.64755 9.79944 3.56185 9.73245C3.46062 9.65485 3.34663 9.56883 3.23341 9.46108C3.07248 9.30647 2.96787 9.14146 2.88132 9.01043C2.86452 8.98471 2.84557 8.95628 2.82999 8.93005C2.81268 8.92652 2.79672 8.92441 2.78292 8.92071C2.59142 8.88597 2.30199 8.83359 2.05566 8.62395C2.0116 8.58548 1.96857 8.54586 1.9266 8.50513C0.775402 10.6509 0.0975337 13.0928 0.0460297 15.6923C-0.113126 23.8771 5.95273 30.7364 13.9112 31.7893C13.8964 31.7349 13.8812 31.6807 13.8705 31.6224C13.8187 31.3389 13.8799 31.0904 13.922 30.9242Z" fill="#00AC6D"/>
<path fill-rule="evenodd" clip-rule="evenodd" d="M12.5022 20.7749C12.529 20.8401 12.5742 20.9201 12.6219 21.0085C12.6939 21.1365 12.7768 21.2826 12.8454 21.4533C12.9523 21.7322 12.9326 21.9942 12.9204 22.1706C12.919 22.1974 12.9152 22.2324 12.9146 22.2578L12.9962 22.4688C13.0489 22.6028 13.1019 22.7402 13.1538 22.8853C13.176 22.9458 13.2175 23.0257 13.2595 23.1106C13.3242 23.2397 13.3976 23.384 13.4566 23.5569C13.4513 23.5459 13.4491 23.5399 13.4491 23.5399C13.4619 23.5604 13.5032 23.6188 13.5316 23.6614C13.6291 23.794 13.7604 23.9751 13.8379 24.2148C13.8659 24.3007 13.9028 24.3942 13.9405 24.4966C13.9931 24.6308 14.0462 24.7683 14.0923 24.9207C14.168 25.167 14.1584 25.398 14.1534 25.5679C14.1493 25.6148 14.1493 25.6784 14.1493 25.7075C14.1733 25.7808 14.2034 25.8655 14.2373 25.9538C14.286 26.0782 14.3392 26.2182 14.3819 26.3735L14.5276 26.9185L14.5687 27.0747C14.5852 27.1374 14.6171 27.2206 14.6538 27.309C14.7068 27.4415 14.7667 27.5923 14.8114 27.7653C14.8492 27.9226 14.8715 28.0745 14.8924 28.2085C14.9073 28.3111 14.9217 28.41 14.9412 28.4917C14.9862 28.6839 14.9938 28.865 14.9991 29.0103C15.0012 29.0963 15.0069 29.1843 15.0179 29.2343C15.0376 29.3188 15.0667 29.4124 15.0964 29.5134C15.1345 29.638 15.1773 29.7797 15.2113 29.9308C15.2209 29.954 15.2498 30.0064 15.2719 30.0438C15.3522 30.1828 15.4619 30.373 15.5098 30.6186C15.5683 30.9041 15.5043 31.1598 15.4628 31.3259C15.4554 31.3503 15.4495 31.3787 15.444 31.4045C15.4589 31.4543 15.4767 31.5173 15.4988 31.5839C15.5408 31.7038 15.5756 31.826 15.6031 31.95C15.6436 31.9515 15.6788 31.9547 15.7161 31.9547C20.4518 32.0467 24.7453 30.0821 27.7374 26.8869C22.1787 22.6311 15.3524 21.1399 12.4551 20.6736C12.4726 20.7073 12.4879 20.7414 12.5022 20.7749Z" fill="#005BAA"/>
<path fill-rule="evenodd" clip-rule="evenodd" d="M31.9555 16.3234C31.9781 15.1146 31.8614 13.9356 31.6261 12.7998C31.527 12.8171 31.426 12.8329 31.328 12.8502C31.0541 12.8999 30.8101 13.0774 30.549 13.1285C30.2813 13.1832 30.0256 13.2646 29.768 13.3236C29.4845 13.3885 29.1975 13.3991 28.9272 13.4701C28.6512 13.5385 28.3566 13.5156 28.0933 13.5903C27.8263 13.6672 27.6027 13.8736 27.3505 13.9547C27.0711 14.0437 26.7781 14.0657 26.5155 14.1586C26.246 14.2527 25.9412 14.2393 25.6874 14.338C25.4302 14.4401 25.2196 14.6447 24.9791 14.7487C24.7129 14.8617 24.4173 14.8936 24.1725 15.0094C23.9011 15.1374 23.7014 15.3824 23.4563 15.5118C23.2021 15.6436 22.9484 15.7523 22.7193 15.8861C22.4672 16.0317 22.1937 16.1223 21.9705 16.2652C21.7226 16.423 21.5512 16.664 21.3366 16.8153C21.0897 16.9913 20.9043 17.2148 20.6985 17.3783C20.4596 17.5705 20.1682 17.6593 19.9827 17.8297C19.7946 17.9998 19.5904 18.1169 19.4316 18.2427L19.0739 18.8148C18.9991 19.0838 18.9991 19.2821 18.8843 19.1163L18.1113 20.352C21.3554 21.3389 25.2416 22.9668 28.6961 25.6419C30.6785 23.0476 31.8864 19.8303 31.9555 16.3234Z" fill="#FAA81A"/>
</g>
</g>
<path d="M48.748 11.934C47.758 14.526 45.454 16.344 41.836 17.37L41.098 15.894C45.004 14.814 47.002 12.834 47.344 10.296H41.944V8.802H49.324C49.324 9.378 49.27 9.918 49.18 10.422H52.528V7.632H54.382V17.19H52.528V15.318H48.586V13.806H52.528V11.934H48.748ZM49.054 17.388C52.348 17.388 54.49 18.63 54.49 20.592C54.49 22.59 52.348 23.814 49.054 23.814C45.76 23.814 43.636 22.59 43.636 20.592C43.636 18.63 45.76 17.388 49.054 17.388ZM49.054 22.356C51.304 22.356 52.654 21.744 52.654 20.592C52.654 19.44 51.304 18.846 49.054 18.846C46.804 18.846 45.472 19.44 45.472 20.592C45.472 21.744 46.804 22.356 49.054 22.356ZM72.2906 11.646V13.176H69.9866V17.388H68.1326V7.614H69.9866V11.646H72.2906ZM65.7746 16.524C64.0286 15.894 62.7506 14.652 62.0486 13.122C61.3286 14.922 59.9966 16.272 58.1246 16.974L57.1346 15.498C59.6906 14.634 61.0766 12.42 61.0766 10.062V8.46H62.9486V10.206C62.9486 12.312 64.3346 14.238 66.7466 15.066L65.7746 16.524ZM64.7486 17.784C68.1326 17.784 70.1666 18.9 70.1666 20.826C70.1666 22.752 68.1326 23.886 64.7486 23.886C61.4006 23.886 59.3306 22.752 59.3306 20.826C59.3306 18.9 61.4006 17.784 64.7486 17.784ZM64.7486 22.428C67.0706 22.428 68.3306 21.906 68.3306 20.826C68.3306 19.818 67.0706 19.242 64.7486 19.242C62.4266 19.242 61.1666 19.818 61.1666 20.826C61.1666 21.906 62.4266 22.428 64.7486 22.428ZM88.6692 12.762H86.3652V16.812H84.5112V7.632H86.3652V11.232H88.6692V12.762ZM83.2512 15.048C80.4972 15.606 78.1032 15.75 75.7092 15.75H74.3952V8.424H76.2492V14.22C78.4272 14.166 80.6232 14.022 83.0172 13.536L83.2512 15.048ZM75.9792 17.64H86.3652V23.688H75.9792V17.64ZM77.7972 22.194H84.5472V19.116H77.7972V22.194ZM104.778 20.412V21.942H90.0538V20.412H96.4618V16.578H91.8538V8.856H102.978V10.35H93.7078V15.084H103.122V16.578H98.3158V20.412H104.778ZM115.252 16.848C113.38 16.326 112.03 15.21 111.292 13.77C110.572 15.426 109.24 16.668 107.296 17.262L106.396 15.822C108.898 15.048 110.302 13.104 110.302 11.088V10.944H106.882V9.468H110.302V7.542H112.174V9.468H115.576V10.944H112.156V11.088C112.156 12.942 113.632 14.706 116.116 15.426L115.252 16.848ZM118.042 12.114V7.614H119.896V17.46H118.042V13.644H115.108V12.114H118.042ZM114.478 17.82C117.88 17.82 119.968 18.936 119.968 20.844C119.968 22.77 117.88 23.886 114.478 23.886C111.076 23.886 109.006 22.77 109.006 20.844C109.006 18.9 111.076 17.82 114.478 17.82ZM114.478 22.446C116.8 22.446 118.114 21.87 118.114 20.844C118.114 19.818 116.8 19.26 114.478 19.26C112.156 19.26 110.86 19.818 110.86 20.844C110.86 21.87 112.156 22.446 114.478 22.446Z" fill="black"/>
<defs>
<clipPath id="clip0_67_23662">
<rect width="32" height="32" fill="white"/>
</clipPath>
</defs>
</svg>
