<svg width="117" height="45" viewBox="0 0 117 45" fill="none" xmlns="http://www.w3.org/2000/svg">
<g clip-path="url(#clip0_67_23631)">
<path d="M18.9824 14.2174C18.9824 18.3411 21.6632 21.3264 25.5592 21.3264C27.9617 21.3264 29.9617 20.0387 31.298 18.0149C33.4853 14.7082 34.4399 14.2174 34.4399 14.2174C34.4399 14.2174 33.4853 13.724 31.298 10.4168C29.9617 8.39796 27.9614 7.10938 25.5592 7.10938C21.6632 7.10938 18.9824 10.0911 18.9824 14.2174Z" fill="url(#paint0_radial_67_23631)"/>
<path d="M40.7191 6.61606C36.3451 13.2324 34.4395 14.2174 34.4395 14.2174C34.4395 14.2174 36.3451 15.2037 40.7191 21.8184C43.396 25.8592 47.3924 28.4347 52.2034 28.4347C59.9953 28.4347 65.3612 22.4722 65.3612 14.2174C65.3612 5.9633 59.9953 -0.000244141 52.2034 -0.000244141C47.3927 -0.000244141 43.396 2.57584 40.7191 6.61606Z" fill="url(#paint1_radial_67_23631)"/>
<path d="M0 26.063H4.8181V41.2929H14.6576V45.0001H3.10584C1.39168 45.0001 0 43.5586 0 41.7819V26.063ZM29.6223 26.063V33.4486H22.0623V26.063H17.2437V45.0001H22.062V35.9862C22.6314 36.7007 23.4936 37.1547 24.4569 37.1547H29.6223V45.0001H34.4393V26.063H29.6223Z" fill="#005DA4"/>
<path d="M51.2634 35.1549V37.4728H52.6586V38.3194H51.2634V41.9405H49.9614V35.1549H51.2634ZM88.817 40.588V41.4335H85.1035V44.6992H83.803V41.4335H80.0907V40.588H88.817ZM46.3263 39.7876C45.7054 39.7876 45.1613 39.1758 45.1613 38.4788C45.1613 37.7886 45.7054 37.1801 46.3263 37.1801C46.9574 37.1801 47.4883 37.7769 47.4883 38.4788C47.4883 39.1758 46.9448 39.7876 46.3263 39.7876ZM48.9509 35.8899H47.0373V34.9502H45.7373V35.8899H43.6895V36.7365H45.0127L44.909 36.8118C44.3355 37.2323 44.0084 37.8378 44.0084 38.4763C44.0084 39.6251 45.0901 40.6336 46.3263 40.6336C47.5611 40.6336 48.6434 39.6251 48.6434 38.4763C48.6434 37.8353 48.3201 37.2276 47.7526 36.8118L47.649 36.7365H48.9509V35.8899ZM103.06 44.0978C102.327 44.0978 101.682 43.4893 101.682 42.7937C101.682 42.104 102.327 41.4996 103.06 41.4996C103.81 41.4996 104.441 42.0937 104.441 42.7937C104.441 43.4893 103.795 44.0978 103.06 44.0978ZM103.06 40.6839C101.599 40.6839 100.447 41.6667 100.447 42.7904C100.447 43.922 101.599 44.9146 103.06 44.9146C104.526 44.9146 105.676 43.922 105.676 42.7907C105.676 41.6489 104.549 40.6839 103.06 40.6839ZM79.0506 44.6995H77.7514V35.1539H79.0506V44.6995ZM115.603 35.1536V38.0567H117.001V38.9159H115.603V44.699H114.301V35.1536H115.603ZM46.5277 41.5165V43.7615H51.4331V44.6102H46.1874C45.5054 44.6102 45.229 44.3561 45.229 43.735V41.5165H46.5277ZM58.5451 38.891C58.7775 38.5864 58.9663 38.1635 58.9663 37.4111V36.1588H53.8934V35.3125H59.3063C59.9891 35.3125 60.2707 35.5669 60.2707 36.1861V37.2828C60.2707 38.0903 60.0355 38.5206 59.6367 38.8908H61.2714V39.7376H57.7228V41.32H59.2847C59.9673 41.32 60.2464 41.572 60.2464 42.1947V44.6992H58.9442V42.1657H53.8588V41.3202H56.426V39.7374H52.944V38.891H58.5451ZM105.584 39.3677H107.423V40.2143H98.7031V39.368H101.894V37.7562H103.192V39.3677H104.509C104.68 39.086 104.971 38.6792 104.971 37.8252V36.149H99.8064V35.3005H105.311C105.991 35.3005 106.271 35.5557 106.271 36.1763V37.6988C106.271 38.3347 106.097 38.8919 105.583 39.3677M96.658 41.32C97.34 41.32 97.6183 41.5739 97.6183 42.1958V44.6992H96.3175V42.1666H91.0007V41.32H96.658ZM63.1073 40.1365V36.399C63.1073 35.7779 63.3855 35.5238 64.0668 35.5238H69.5369V36.3715H64.4078V37.8244H69.2753V38.6715H64.4078V40.1657H69.6619V41.0117H66.9377V42.78H70.6533V43.6263H61.9371V42.78H65.6366V41.0117H64.0671C63.3858 41.0117 63.1073 40.7551 63.1073 40.1365ZM97.6183 35.1536V40.5154H96.3966V37.9036H95.5634V40.5154H94.3412V39.6211L94.2716 39.7013C94.1114 39.882 93.3396 40.154 92.5364 40.154H91.0544L90.7352 40.1501C90.054 40.1501 89.7749 39.8987 89.7749 39.2782V36.23C89.7749 35.6084 90.054 35.3548 90.7352 35.3548H93.3849V36.2126H91.0522V37.2964H93.2092V38.1427H91.0522V39.3063H92.9178C93.6752 39.3063 94.151 39.0737 94.3207 38.9738L94.3412 38.9623V35.1536H95.5634V37.1826H96.3966V35.1536H97.6183ZM73.9987 39.6729C73.6803 40.4679 72.9904 41.3757 71.5659 41.9675C71.3926 41.746 71.2187 41.5249 71.0443 41.3041C72.0137 40.8277 73.3379 39.7584 73.3379 37.4545V36.3444H71.5168V35.5006H76.4806V36.3442H74.6587V37.4545C74.6587 39.7584 75.9833 40.8277 76.9532 41.3044C76.8967 41.3746 76.4599 41.9301 76.4312 41.9675C75.0101 41.3757 74.3177 40.4679 73.9987 39.6729ZM84.452 37.9778C84.452 37.9778 83.8818 39.3374 81.0758 39.8059L80.666 39.0688C82.1358 38.7835 83.7975 37.8525 83.7975 36.2803V36.1798H81.0635V35.3218H87.8424V36.1798H85.1093V36.2803C85.1093 37.8525 86.7722 38.7835 88.2394 39.069L87.831 39.8056C85.025 39.3374 84.452 37.9778 84.452 37.9778ZM111.376 37.5145C111.376 39.819 112.592 40.8015 113.669 41.2673C113.612 41.3391 113.178 41.8936 113.146 41.9326C111.956 41.5941 110.926 40.5539 110.714 39.7909C110.505 40.5536 109.476 41.5938 108.283 41.9326C108.11 41.7105 107.936 41.4888 107.761 41.2673C108.838 40.8015 110.055 39.819 110.055 37.5145V35.3742H111.376V37.5145Z" fill="#6D6F71"/>
</g>
<defs>
<radialGradient id="paint0_radial_67_23631" cx="0" cy="0" r="1" gradientUnits="userSpaceOnUse" gradientTransform="translate(23.2674 10.0327) scale(11.4828 11.8988)">
<stop stop-color="#D7DF23"/>
<stop offset="0.1" stop-color="#D7DF23"/>
<stop offset="0.9" stop-color="#8CC63F"/>
<stop offset="1" stop-color="#A6CE38"/>
</radialGradient>
<radialGradient id="paint1_radial_67_23631" cx="0" cy="0" r="1" gradientUnits="userSpaceOnUse" gradientTransform="translate(46.6844 6.18116) scale(22.8535 23.6814)">
<stop stop-color="#D7DF23"/>
<stop offset="0.1" stop-color="#D7DF23"/>
<stop offset="0.9" stop-color="#8CC63F"/>
<stop offset="1" stop-color="#A6CE38"/>
</radialGradient>
<clipPath id="clip0_67_23631">
<rect width="117" height="45" fill="white"/>
</clipPath>
</defs>
</svg>
