<svg width="16" height="16" viewBox="0 0 16 16" fill="none" xmlns="http://www.w3.org/2000/svg">
<g clip-path="url(#clip0_128_117)">
<rect width="16" height="16" rx="8" fill="black"/>
<path d="M9.07191 3.70215V4.41271C11.158 4.85255 12.2036 6.56997 12.2036 8.31557C12.2036 10.3401 10.8024 12.3295 7.99984 12.3295C5.19691 12.3295 3.79578 10.3401 3.79578 8.31557C3.79578 6.59258 4.81476 4.89975 6.84484 4.43271V3.7169C4.39294 4.18558 3 6.14553 3 8.31557C3 10.8071 4.83442 13.0211 8.00016 13.0211C11.1659 13.0211 13 10.8068 13 8.31557C12.9993 6.12095 11.5753 4.14232 9.07191 3.70215Z" fill="white"/>
<path d="M8.41474 5.8081C8.41474 6.0785 8.21022 6.29776 7.95818 6.29776C7.70647 6.29776 7.50195 6.0785 7.50195 5.8081V1.48933C7.50195 1.21894 7.70647 1 7.95818 1C8.21022 1 8.41474 1.21894 8.41474 1.48933V5.8081Z" fill="#EF3B3D"/>
</g>
<defs>
<clipPath id="clip0_128_117">
<rect width="16" height="16" fill="white"/>
</clipPath>
</defs>
</svg>
