<?xml version="1.0" encoding="utf-8"?>
<!-- Generator: Adobe Illustrator 16.0.0, SVG Export Plug-In . SVG Version: 6.00 Build 0)  -->
<!DOCTYPE svg PUBLIC "-//W3C//DTD SVG 1.1//EN" "http://www.w3.org/Graphics/SVG/1.1/DTD/svg11.dtd">
<svg version="1.1" id="Layer_1" xmlns="http://www.w3.org/2000/svg" xmlns:xlink="http://www.w3.org/1999/xlink" x="0px" y="0px"
	 width="1200px" height="400px" viewBox="0 0 1200 400" enable-background="new 0 0 1200 400" xml:space="preserve">
<path fill="none" stroke="#EE3A3D" stroke-miterlimit="10" d="M0.5,200.76c0,0,0.515-30.244,9.133-58.488
	C18.251,114.027,61.465,6.479,200.349,0.516c0,0,99.917-3.214,160.116,80.768c0,0,39.217,45.991,40.216,119.726
	c0,0-4.246,69.235,49.209,130.973c0,0,58.868,70.735,149.459,67.403c0,0,82.848,4.832,147.044-62.904
	c0,0,52.456-51.072,53.455-135.722c0,0-3.996-83.649,61.948-144.97c0,0,48.795-53.393,137.887-55.273
	c0,0,85.927-2.714,147.376,66.021c0,0,51.425,52.739,52.44,133.972"/>
</svg>
